HIERARCHY
ROOT root
{
	OFFSET	0	13.1	24.9
	CHANNELS 6  Xposition Yposition Zposition Xrotation Yrotation Zrotation
	JOINT spine_1
	{
		OFFSET	0	9.99999	0
		CHANNELS 3  Xrotation Yrotation Zrotation
		JOINT spine_2
		{
			OFFSET	0	112	-10
			CHANNELS 3  Xrotation Yrotation Zrotation
			JOINT spine_3
			{
				OFFSET	0	206.5	19.3
				CHANNELS 3  Xrotation Yrotation Zrotation
				JOINT spine_4
				{
					OFFSET	0	110.4	14.6
					CHANNELS 3  Xrotation Yrotation Zrotation
					JOINT neck_1
					{
						OFFSET	0	71.8	-50.3
						CHANNELS 3  Xrotation Yrotation Zrotation
						JOINT neck_2
						{
							OFFSET	0	86.2	-25.8
							CHANNELS 3  Xrotation Yrotation Zrotation
							JOINT head_ee
							{
								OFFSET	0	179.8	-8.7
								CHANNELS 3  Xrotation Yrotation Zrotation
								End Site
								{
									OFFSET	1	0	0
								}
							}
						}
					}
					JOINT left_clavicle
					{
						OFFSET	-43.2	22.4	-70.8
						CHANNELS 3  Xrotation Yrotation Zrotation
						JOINT left_shoulder
						{
							OFFSET	-93.9	-5.79999	48.7
							CHANNELS 3  Xrotation Yrotation Zrotation
							JOINT left_elbow
							{
								OFFSET	-291.4	-30.8	15.2
								CHANNELS 3  Xrotation Yrotation Zrotation
								JOINT left_lowarm_twist
								{
									OFFSET	-110.7	-3.89999	13.6
									CHANNELS 3  Xrotation Yrotation Zrotation
									JOINT left_hand
									{
										OFFSET	-110.7	-3.89999	13.6
										CHANNELS 3  Xrotation Yrotation Zrotation
										JOINT left_ee
										{
											OFFSET	-80.8	-5.10001	12.1
											CHANNELS 3  Xrotation Yrotation Zrotation
											End Site
											{
												OFFSET	1	0	0
											}
										}
									}
								}
							}
						}
					}
					JOINT right_clavicle
					{
						OFFSET	43.2	22.4	-70.8
						CHANNELS 3  Xrotation Yrotation Zrotation
						JOINT right_shoulder
						{
							OFFSET	93.9	-5.79999	48.7
							CHANNELS 3  Xrotation Yrotation Zrotation
							JOINT right_elbow
							{
								OFFSET	291.4	-30.8	15.2
								CHANNELS 3  Xrotation Yrotation Zrotation
								JOINT right_lowarm_twist
								{
									OFFSET	110.7	-3.89999	13.6
									CHANNELS 3  Xrotation Yrotation Zrotation
									JOINT right_hand
									{
										OFFSET	110.7	-3.89999	13.6
										CHANNELS 3  Xrotation Yrotation Zrotation
										JOINT right_ee
										{
											OFFSET	80.8	-5.10001	12.1
											CHANNELS 3  Xrotation Yrotation Zrotation
											End Site
											{
												OFFSET	1	0	0
											}
										}
									}
								}
							}
						}
					}
				}
			}
		}
	}
	JOINT left_hip
	{
		OFFSET	-82.8	-127.5	0.300001
		CHANNELS 3  Xrotation Yrotation Zrotation
		JOINT left_knee
		{
			OFFSET	-28.2	-396.7	2.2
			CHANNELS 3  Xrotation Yrotation Zrotation
			JOINT left_ankle
			{
				OFFSET	-11.7	-411.3	35.4
				CHANNELS 3  Xrotation Yrotation Zrotation
				JOINT left_toes
				{
					OFFSET	0	-60	-88.6
					CHANNELS 3  Xrotation Yrotation Zrotation
					JOINT left_foot_ee
					{
						OFFSET	-22.5	-16.5	-42.2
						CHANNELS 3  Xrotation Yrotation Zrotation
						End Site
						{
							OFFSET	1	0	0
						}
					}
				}
			}
		}
	}
	JOINT right_hip
	{
		OFFSET	82.8	-127.5	0.300001
		CHANNELS 3  Xrotation Yrotation Zrotation
		JOINT right_knee
		{
			OFFSET	28.2	-396.7	2.2
			CHANNELS 3  Xrotation Yrotation Zrotation
			JOINT right_ankle
			{
				OFFSET	11.7	-411.3	35.4
				CHANNELS 3  Xrotation Yrotation Zrotation
				JOINT right_toes
				{
					OFFSET	0	-60	-88.6
					CHANNELS 3  Xrotation Yrotation Zrotation
					JOINT right_foot_ee
					{
						OFFSET	22.5	-16.5	-42.2
						CHANNELS 3  Xrotation Yrotation Zrotation
						End Site
						{
							OFFSET	1	0	0
						}
					}
				}
			}
		}
	}
}
MOTION
Frames: 9
Frame Time: 0.02
3177.02 653.055 -1669.29 -30.9253190904 75.1796893149 33.9257190991 2.90202 -0.453755 -1.17324 2.90271 -0.378184 -1.19973 2.91049 -0.181082 -1.24482 2.90853 -0.375391 -1.20061 -7.24475 4.46959 4.98037 -7.18079 4.73069 5.88324 -0.0 0.0 -0.0 2.21577 -1.81972 4.12019 -48.5868 -13.1358 77.7792 0.831637 -22.39 0.164596 18.7189 0.275469 -2.36469 0.549617 14.4697 9.38492 -0.0 0.0 -0.0 4.01652 12.8609 -6.92341 11.5414 18.4594 -58.1694 2.38922 49.7976 -1.1091 24.5387 -0.202627 3.10418 3.07304 28.3817 -7.60891 0.0 0.0 0.0 31.1935 -32.305 -1.8104 7.99893 -0.410982 -1.15708 -20.6846 22.6507 3.20485 16.9942 -0.0 -0.0 -0.0 0.0 -0.0 -18.182 -31.1826 -9.68945 5.15694 0.246448 0.752535 15.4057 30.7761 2.73124 -1.27136 0.0 0.0 0.0 0.0 0.0 
3128.99460709 652.871 -1669.1271027 -34.4565706643 75.6331257 36.1984305051 3.17906 -0.219981 -1.28859 3.17997 -0.137546 -1.29997 3.18278 0.0663659 -1.30554 3.18043 -0.140635 -1.29964 -7.00075 9.17265 8.88367 -6.79908 10.6207 10.7001 -0.0 0.0 -0.0 2.85534 -2.09546 5.35321 -48.3261 -13.1086 77.3886 0.944467 -25.0727 0.210016 20.4581 0.261578 -2.58639 0.539509 15.6183 9.74776 -0.0 0.0 -0.0 4.21676 13.1863 -7.32047 11.7901 18.8771 -57.9415 2.38012 49.6898 -1.10216 24.8989 -0.195654 3.14967 2.65858 27.3417 -5.49588 0.0 0.0 0.0 30.4381 -32.2064 -1.98586 2.56246 -0.113972 -0.376645 -25.1441 21.5536 3.88004 13.3549 -0.0 -0.0 -0.0 0.0 -0.0 -17.1381 -30.4154 -6.8876 4.47251 0.209845 0.653951 15.6806 27.8195 2.67131 -0.109684 0.0 0.0 0.0 0.0 0.0 
3040.42400956 662.909 -1675.62671021 -23.7037886494 70.9808267496 26.5427316724 2.91238 -0.261826 -1.50152 2.91362 -0.16576 -1.51513 2.91767 0.0790112 -1.52212 2.91447 -0.162343 -1.5155 -7.46325 12.0982 9.64086 -7.23891 15.6496 12.0715 -0.0 0.0 -0.0 3.67185 -3.13707 6.89621 -42.4759 -12.808 75.3327 1.01922 -26.7883 0.24271 21.4501 0.250642 -2.71263 0.397668 19.0906 10.1417 -0.0 0.0 -0.0 4.35463 11.7714 -7.71666 9.31321 18.1725 -58.0478 2.21934 47.7043 -0.981358 25.1747 -0.190122 3.18447 2.18937 23.7621 -4.22542 0.0 0.0 0.0 29.4067 -32.5926 -1.38043 -1.93826 0.0749403 0.288002 -24.279 16.7487 3.68876 8.92336 -0.0 -0.0 -0.0 0.0 -0.0 -17.7659 -30.7769 -5.92877 0.500559 0.0209352 0.073961 12.095 21.6771 1.9585 1.41174 -0.0 -0.0 0.0 0.0 0.0 
3016.59143887 664.515 -1681.52199795 -26.0014482099 70.4700292567 28.9285944745 2.90095 -0.388981 -1.53995 2.90222 -0.290214 -1.56157 2.90982 -0.0362275 -1.58789 2.90642 -0.28652 -1.56226 -7.49516 12.0669 9.50709 -7.27842 15.6957 11.9368 -0.0 0.0 -0.0 3.86258 -3.24906 7.26862 -41.3128 -12.8689 75.189 1.0269 -26.9618 0.246182 21.4476 0.250673 -2.71231 0.394482 19.0856 10.1204 -0.0 0.0 -0.0 4.39988 11.6421 -7.82097 8.94926 18.1056 -58.2611 2.15428 46.8551 -0.933561 25.1741 -0.190133 3.18439 2.17537 23.614 -4.2051 0.0 0.0 0.0 28.6362 -32.5395 -1.45518 -2.25319 0.0861935 0.335025 -24.2076 16.7367 3.67783 8.94576 -0.0 -0.0 -0.0 0.0 -0.0 -17.6356 -30.7925 -5.80414 0.494931 0.0206966 0.0731304 12.0836 21.586 1.95499 1.42609 -0.0 -0.0 0.0 0.0 0.0 
2977.54351357 680.45 -1696.38601005 -20.4467694499 68.5201168979 23.7899176597 2.40282 -0.621362 -1.6117 2.40411 -0.517561 -1.64796 2.41896 -0.232235 -1.71162 2.41522 -0.499602 -1.65349 -4.57633 13.3333 7.6868 -4.36554 18.6772 10.0409 -0.0 0.0 -0.0 4.15351 -4.28856 7.78936 -36.5187 -14.159 73.0435 1.04075 -27.273 0.252491 21.7975 0.246296 -2.75679 0.185994 21.4672 9.73034 -0.0 0.0 -0.0 4.20624 9.74177 -7.55088 7.31826 16.7077 -62.2557 2.1147 46.325 -0.904809 23.5034 -0.221073 2.97322 1.94175 20.8877 -3.95927 0.0 0.0 0.0 26.4343 -32.6046 -1.3488 -9.73828 0.276833 1.46709 -23.4034 16.6987 3.5553 12.1501 -0.0 -0.0 -0.0 0.0 -0.0 -12.8433 -28.0584 -1.9191 -11.3069 -0.297943 -1.70684 14.4426 19.1962 2.26114 2.85327 -0.0 -0.0 0.0 0.0 0.0 
2963.9645013 678.919 -1706.01760504 -16.8620727034 67.40118094 20.1520691489 2.00696 -0.518348 -1.47088 2.00806 -0.423713 -1.50087 2.01925 -0.15367 -1.55193 2.01611 -0.396813 -1.50821 -2.63807 14.8408 7.66581 -2.33863 20.9648 10.0112 -0.0 0.0 -0.0 4.23695 -4.96281 7.91841 -35.0643 -15.3635 71.2201 1.02889 -27.0065 0.247083 21.5161 0.249837 -2.72102 -0.0385348 21.372 8.36102 -0.0 0.0 -0.0 4.09338 9.35589 -7.34363 6.71706 15.9834 -64.5708 2.12033 46.401 -0.908883 22.36 -0.238691 2.82824 1.68436 17.9587 -3.59751 0.0 0.0 0.0 25.5426 -34.2932 -0.582427 -13.1516 0.314359 1.9894 -23.3725 19.3902 3.5783 14.2901 -0.0 -0.0 -0.0 0.0 -0.0 -11.0345 -24.8686 -0.975528 -21.5666 -0.273733 -3.27874 17.3393 17.1361 2.6315 3.91189 -0.0 -0.0 0.0 0.0 0.0 
2963.93255148 678.919 -1705.83178132 -16.8969712486 67.4489969058 20.1898635589 2.00696 -0.518348 -1.47088 2.00806 -0.423713 -1.50087 2.01925 -0.15367 -1.55193 2.01611 -0.396813 -1.50821 -2.63807 14.8408 7.66581 -2.33863 20.9648 10.0112 -0.0 0.0 -0.0 4.23695 -4.96281 7.91841 -35.0643 -15.3635 71.2201 1.02889 -27.0065 0.247083 21.5161 0.249837 -2.72102 -0.0385348 21.372 8.36102 -0.0 0.0 -0.0 4.09338 9.35589 -7.34363 6.71706 15.9834 -64.5708 2.12033 46.401 -0.908883 22.36 -0.238691 2.82824 1.68436 17.9587 -3.59751 0.0 0.0 0.0 25.5426 -34.2932 -0.582427 -13.1516 0.314359 1.9894 -23.3725 19.3902 3.5783 14.2901 -0.0 -0.0 -0.0 0.0 -0.0 -11.0345 -24.8686 -0.975528 -21.5666 -0.273733 -3.27874 17.3393 17.1361 2.6315 3.91189 -0.0 -0.0 0.0 0.0 0.0 
2946.92969955 681.643 -1718.32307188 -11.6312402772 65.9991204105 14.6058210495 1.62117 -0.440026 -1.22048 1.62192 -0.361478 -1.246 1.62995 -0.12835 -1.29101 1.62777 -0.330614 -1.25455 -2.5369 16.3453 7.94592 -2.17485 23.4718 10.4794 -0.0 0.0 -0.0 4.38416 -5.57529 8.18087 -32.3632 -16.226 69.4549 0.897131 -23.9607 0.190373 21.43 0.250886 -2.71007 -0.124497 21.4459 7.87978 -0.0 0.0 -0.0 3.79276 9.07394 -6.74168 5.92149 15.9794 -66.1067 2.1248 46.4612 -0.91212 22.4182 -0.237865 2.83563 1.48484 13.7089 -4.16115 0.0 0.0 0.0 22.9221 -37.731 1.59539 -15.3967 0.322055 2.33375 -21.4116 24.8226 3.35219 15.3407 -0.0 -0.0 -0.0 0.0 -0.0 -9.60132 -19.5677 -2.12383 -28.7142 -0.0911626 -4.35974 17.9197 13.6502 2.64379 3.77194 -0.0 -0.0 0.0 0.0 0.0 
2932.35791709 677.574 -1731.13731188 -6.75149651644 64.2698217114 9.49844404335 1.08346 -0.432584 -1.00442 1.08395 -0.367797 -1.02991 1.09079 -0.163776 -1.08127 1.08931 -0.332478 -1.04184 -2.62197 17.3563 8.19398 -2.21781 25.1566 10.8746 -0.0 0.0 -0.0 4.59525 -6.43457 8.56131 -29.7786 -17.0684 67.9255 0.820534 -22.1201 0.160391 21.3521 0.25182 -2.70017 -0.188594 21.4565 7.50479 -0.0 0.0 -0.0 3.57769 8.82259 -6.31622 5.19782 16.0181 -67.3351 2.11928 46.3868 -0.908121 22.4588 -0.237284 2.84078 1.34571 10.6348 -4.56551 0.0 0.0 0.0 20.3143 -40.5742 1.46105 -16.9656 0.319422 2.57444 -19.8999 28.6431 3.18233 16.0987 -0.0 -0.0 -0.0 0.0 -0.0 -7.95781 -15.1861 -1.38138 -33.6806 0.114414 -5.0939 18.3288 11.1817 2.65754 3.6484 -0.0 -0.0 0.0 0.0 0.0 
